# xmcd
#
# Track frame offsets: 
#        150
#        13607
#        31351
#        53049
#        72959
#        89282
#        103799
#        122671
#        141749
#        161475
#        181800
#
# Disc length: 2571 seconds
#
# Revision: 1
# Processed by: cddbd v1.5.2PL0 Copyright (c) Steve Scherf et al.
# Submitted via: ExactAudioCopy v0.99pb5
#
DISCID=930a090b
DTITLE=Ray Bonneville - At King Electric
DYEAR=2018
DGENRE=Blues
TTITLE0=Waiting on the Night
TTITLE1=Next Card to Fall
TTITLE2=Tender Heart
TTITLE3=South of the Blues
TTITLE4=It'll Make a Hole in You
TTITLE5=Codeine
TTITLE6=Until Such a Day
TTITLE7=Papachulalay
TTITLE8=The Day They Let Me Out
TTITLE9=Forever Gone
TTITLE10=Riverside Drive
EXTD=
EXTT0=
EXTT1=
EXTT2=
EXTT3=
EXTT4=
EXTT5=
EXTT6=
EXTT7=
EXTT8=
EXTT9=
EXTT10=
PLAYORDER=
